<svg width="280" height="31" viewBox="0 0 280 31" fill="none" xmlns="http://www.w3.org/2000/svg">
<path d="M68.0373 30.825C57.5415 30.825 48.9447 24.5435 48.4651 16.5252C48.2168 12.3682 50.0756 8.42547 53.7016 5.42427C57.3295 2.42157 62.2182 0.767822 67.4719 0.767822H84.5147C85.6093 0.767822 86.4996 1.47096 86.4996 2.33556V3.2741C86.4996 4.13869 85.6093 4.84184 84.5147 4.84184H67.4719C63.6529 4.84184 59.962 6.1078 57.3447 8.31531C54.6931 10.553 53.3749 13.4727 53.6328 16.5388C54.1142 22.2651 60.3899 26.751 67.9227 26.751H84.5128C85.6074 26.751 86.4977 27.4542 86.4977 28.3188V29.2558C86.4977 30.1204 85.6074 30.8235 84.5128 30.8235H68.0373V30.825Z" fill="white"/>
<path d="M163.408 30.8166C161.599 30.8166 159.856 30.4967 158.234 29.8645C155.892 28.9652 153.995 27.4608 152.889 25.629C152.066 24.3465 151.653 22.9749 151.653 21.5339V2.34826C151.653 1.48367 152.543 0.780518 153.638 0.780518H154.824C155.919 0.780518 156.809 1.48367 156.809 2.34826V22.1495L156.817 22.2008C157.208 24.5637 159.572 26.4302 162.563 26.7396L162.626 26.7456H180.707C181.801 26.7456 182.692 27.4488 182.692 28.3133V29.2504C182.692 30.115 181.801 30.8181 180.707 30.8181H163.404L163.408 30.8166Z" fill="white"/>
<path d="M3.58776 30.8166C2.49309 30.8166 1.60284 30.1135 1.60284 29.2489V28.3118C1.60284 27.4472 2.49309 26.7441 3.58776 26.7441H30.1292C32.0988 26.7441 33.9443 26.0515 35.1937 24.8414C36.4316 23.6433 36.913 22.0786 36.5176 20.5471C35.9062 18.1871 33.1553 16.4745 29.9763 16.4745H9.80425C7.2462 16.4745 4.83908 15.7065 3.02992 14.3123C2.51411 13.923 2.10146 13.5382 1.76522 13.1293C0.603691 11.8166 0 10.2971 0 8.71128V8.52417C0 4.254 4.39778 0.780518 9.80425 0.780518H37.2531C38.3478 0.780518 39.238 1.48367 39.238 2.34826V3.30491C39.238 4.1695 38.3478 4.87264 37.2531 4.87264H9.80616C7.24429 4.87264 5.15812 6.51885 5.15812 8.54379V8.71279C5.15812 10.7362 7.24238 12.3824 9.80616 12.3824H30.1311C33.4074 12.3824 36.5443 13.4794 38.7413 15.3942L38.7795 15.4274L38.8215 15.4576C38.9343 15.5345 39.0374 15.6431 39.1559 15.7684C41.2325 17.7828 42.1323 20.283 41.712 22.8345C40.9631 27.3869 35.8165 30.8196 29.7432 30.8196H3.58776V30.8166Z" fill="white"/>
<path d="M191.454 30.8572C190.759 30.8572 190.125 30.5765 189.762 30.1087C189.403 29.6455 189.37 29.0797 189.676 28.5938L209.407 1.59362C209.752 1.05646 210.413 0.736572 211.176 0.736572C211.938 0.736572 212.599 1.05646 212.945 1.59362L232.677 28.5938C232.981 29.0797 232.951 29.6455 232.591 30.1087C232.228 30.5765 231.596 30.8572 230.901 30.8572L229.466 30.8526C228.755 30.8496 227.926 30.2898 227.191 29.3151L211.178 7.06941L195.256 29.1928C194.131 30.8572 193.493 30.8572 192.878 30.8572H191.456H191.454Z" fill="white"/>
<path d="M274.763 30.8253C274.014 30.8253 273.336 30.4979 272.996 29.9713L272.958 29.914L262.997 19.3426C261.536 17.4626 258.895 16.2962 256.093 16.2962H240.124C239.027 16.2962 238.135 15.5915 238.135 14.7254V13.7944C238.135 12.9283 239.027 12.2237 240.124 12.2237H270.197C270.914 12.2237 271.546 12.1105 272.135 11.8796C273.766 11.3048 274.844 9.98749 274.844 8.53442C274.844 7.5808 274.36 6.65132 273.481 5.91649L273.443 5.88631C272.536 5.2058 271.412 4.84668 270.196 4.84668H240.122C239.025 4.84668 238.133 4.14203 238.133 3.27592V2.34493C238.133 1.47882 239.025 0.77417 240.122 0.77417H270.196C272.813 0.77417 275.275 1.57992 277.128 3.04355C278.98 4.52377 280 6.47629 280 8.53744C280 11.685 277.709 14.5172 274.299 15.587C272.259 16.2268 269.223 16.2585 268.635 16.2585H268.446L266.453 16.2253L277.908 28.6027C278.189 29.0811 278.151 29.6303 277.799 30.083C277.434 30.5507 276.802 30.8314 276.106 30.8314H274.76L274.763 30.8253Z" fill="white"/>
<path d="M99.7949 30.8569C99.0823 30.8569 98.4328 30.5702 98.0603 30.0904C97.6915 29.6151 97.6591 29.0357 97.9724 28.5378L118.186 0.876668C118.54 0.32743 119.218 0 119.999 0C120.781 0 121.457 0.32743 121.812 0.876668L142.027 28.5378C142.338 29.0357 142.305 29.6151 141.939 30.0889C141.566 30.5687 140.918 30.8554 140.206 30.8554L138.735 30.8509C138.007 30.8479 137.159 30.2745 136.404 29.2756L119.998 6.48674L103.686 29.1519C102.533 30.8569 101.881 30.8569 101.249 30.8569H99.793H99.7949Z" fill="white"/>
<path d="M112.887 5.0479L110.675 6.11469C108.705 7.06378 107.022 8.02797 105.528 9.05552C101.066 12.016 97.2353 16.7992 98.7293 20.8113L98.7656 20.9139L96.1541 24.2833L95.9095 23.9076C95.4759 23.2361 95.1473 22.5254 94.939 21.7936C92.9579 14.4785 101.442 8.03551 110.425 5.69069L112.887 5.04639V5.0479Z" fill="white"/>
<path d="M143.816 13.5288C143.625 17.8231 140.36 22.0375 134.631 25.4023C133.798 25.8912 132.929 26.3514 132.042 26.7739C130.286 27.6008 128.437 28.3099 126.552 28.8939C122.412 30.1719 118.14 30.8162 113.981 30.8162C112.208 30.8162 110.458 30.6985 108.741 30.4631L108.063 30.3741L110.691 26.8599L110.882 26.8735C115.351 27.222 120.478 26.6109 125.316 25.1624C126.869 24.6977 128.338 24.162 129.683 23.569C130.938 23.0137 132.117 22.4087 133.198 21.7598C136.119 20.0261 139.735 17.1547 140.391 13.3538C141.153 8.25974 135.322 5.10766 129.618 3.86282L126.976 3.28491L129.711 3.4026C133.448 3.55802 136.921 4.55842 139.485 6.20764C142.376 8.06811 143.87 10.6016 143.816 13.5288Z" fill="white"/>
</svg>
